<mxfile host="Electron" modified="2024-02-17T23:41:45.691Z" agent="Mozilla/5.0 (Windows NT 10.0; Win64; x64) AppleWebKit/537.36 (KHTML, like Gecko) draw.io/23.1.5 Chrome/120.0.6099.109 Electron/28.1.0 Safari/537.36" etag="68sUwPObxYrd7kXFdsAq" version="23.1.5" type="device">
  <diagram name="PÃ¡gina-1" id="d62SkPQn6oCtbIl7YVaH">
    <mxGraphModel dx="1775" dy="1028" grid="0" gridSize="10" guides="1" tooltips="1" connect="1" arrows="1" fold="1" page="1" pageScale="1" pageWidth="827" pageHeight="1169" math="0" shadow="0">
      <root>
        <mxCell id="0" />
        <mxCell id="1" parent="0" />
        <mxCell id="ZhV66ZL3Fcg3pCTveZNn-1" value="" style="aspect=fixed;sketch=0;html=1;dashed=0;whitespace=wrap;fillColor=#2875E2;strokeColor=#ffffff;points=[[0.005,0.63,0],[0.1,0.2,0],[0.9,0.2,0],[0.5,0,0],[0.995,0.63,0],[0.72,0.99,0],[0.5,1,0],[0.28,0.99,0]];shape=mxgraph.kubernetes.icon2;kubernetesLabel=1;prIcon=user" parent="1" vertex="1">
          <mxGeometry x="18" y="416.5" width="97.92" height="94" as="geometry" />
        </mxCell>
        <mxCell id="ZhV66ZL3Fcg3pCTveZNn-2" value="Course Tracker" style="swimlane;whiteSpace=wrap;html=1;startSize=49;strokeWidth=7;strokeColor=#66B2FF;fontSize=25;" parent="1" vertex="1">
          <mxGeometry x="182" y="76" width="885" height="1014" as="geometry" />
        </mxCell>
        <mxCell id="ZhV66ZL3Fcg3pCTveZNn-19" value="&lt;p style=&quot;margin:0px;margin-top:6px;text-align:center;&quot;&gt;&lt;b&gt;&lt;br&gt;&lt;br&gt;ms-eureka&lt;/b&gt;&lt;/p&gt;&lt;hr&gt;&lt;p style=&quot;margin:0px;margin-left:8px;&quot;&gt;&lt;br&gt;&lt;/p&gt;" style="align=left;overflow=fill;html=1;dropTarget=1;whiteSpace=wrap;container=1;collapsible=0;strokeWidth=4;strokeColor=#00CC00;" parent="ZhV66ZL3Fcg3pCTveZNn-2" vertex="1">
          <mxGeometry x="91" y="842" width="145" height="127" as="geometry" />
        </mxCell>
        <mxCell id="ZhV66ZL3Fcg3pCTveZNn-20" value="" style="shape=component;jettyWidth=8;jettyHeight=4;" parent="ZhV66ZL3Fcg3pCTveZNn-19" vertex="1">
          <mxGeometry x="1" width="20" height="20" relative="1" as="geometry">
            <mxPoint x="-24" y="4" as="offset" />
          </mxGeometry>
        </mxCell>
        <mxCell id="ZhV66ZL3Fcg3pCTveZNn-21" value="" style="shape=image;verticalLabelPosition=bottom;labelBackgroundColor=default;verticalAlign=top;aspect=fixed;imageAspect=0;image=https://images.g2crowd.com/uploads/product/image/social_landscape/social_landscape_9d63a0ed04b871d3dacc8647b7f0927d/spring-boot.png;clipPath=inset(0% 23% 3.16% 23%);" parent="ZhV66ZL3Fcg3pCTveZNn-19" vertex="1">
          <mxGeometry x="7" y="10" width="32.82" height="31" as="geometry" />
        </mxCell>
        <mxCell id="ZhV66ZL3Fcg3pCTveZNn-32" style="edgeStyle=orthogonalEdgeStyle;rounded=0;orthogonalLoop=1;jettySize=auto;html=1;entryX=1;entryY=0.5;entryDx=0;entryDy=0;strokeWidth=4;strokeColor=#97D077;flowAnimation=1;" parent="ZhV66ZL3Fcg3pCTveZNn-2" source="ZhV66ZL3Fcg3pCTveZNn-22" target="ZhV66ZL3Fcg3pCTveZNn-19" edge="1">
          <mxGeometry relative="1" as="geometry" />
        </mxCell>
        <mxCell id="ZhV66ZL3Fcg3pCTveZNn-22" value="&lt;p style=&quot;margin:0px;margin-top:6px;text-align:center;&quot;&gt;&lt;b&gt;&lt;br&gt;&lt;br&gt;ms-configServer&lt;/b&gt;&lt;/p&gt;&lt;hr&gt;&lt;p style=&quot;margin:0px;margin-left:8px;&quot;&gt;&lt;br&gt;&lt;/p&gt;" style="align=left;overflow=fill;html=1;dropTarget=1;whiteSpace=wrap;container=1;collapsible=0;strokeWidth=4;strokeColor=#00CC00;" parent="ZhV66ZL3Fcg3pCTveZNn-2" vertex="1">
          <mxGeometry x="587" y="842" width="145" height="127" as="geometry" />
        </mxCell>
        <mxCell id="ZhV66ZL3Fcg3pCTveZNn-23" value="" style="shape=component;jettyWidth=8;jettyHeight=4;" parent="ZhV66ZL3Fcg3pCTveZNn-22" vertex="1">
          <mxGeometry x="1" width="20" height="20" relative="1" as="geometry">
            <mxPoint x="-24" y="4" as="offset" />
          </mxGeometry>
        </mxCell>
        <mxCell id="ZhV66ZL3Fcg3pCTveZNn-24" value="" style="shape=image;verticalLabelPosition=bottom;labelBackgroundColor=default;verticalAlign=top;aspect=fixed;imageAspect=0;image=https://images.g2crowd.com/uploads/product/image/social_landscape/social_landscape_9d63a0ed04b871d3dacc8647b7f0927d/spring-boot.png;clipPath=inset(0% 23% 3.16% 23%);" parent="ZhV66ZL3Fcg3pCTveZNn-22" vertex="1">
          <mxGeometry x="7" y="10" width="32.82" height="31" as="geometry" />
        </mxCell>
        <mxCell id="ZhV66ZL3Fcg3pCTveZNn-3" value="COURSE_TRACKER_DB" style="swimlane;whiteSpace=wrap;html=1;startSize=61;strokeWidth=7;strokeColor=#330066;" parent="1" vertex="1">
          <mxGeometry x="1264" y="143" width="206" height="550" as="geometry" />
        </mxCell>
        <mxCell id="ZhV66ZL3Fcg3pCTveZNn-7" value="&lt;p style=&quot;margin:0px;margin-top:6px;text-align:center;&quot;&gt;&lt;b&gt;PLATFORM&lt;/b&gt;&lt;/p&gt;&lt;hr&gt;&lt;p style=&quot;margin:0px;margin-left:8px;&quot;&gt;+ Attribute1: Type&lt;br&gt;+ Attribute2: Type&lt;/p&gt;" style="align=left;overflow=fill;html=1;dropTarget=0;whiteSpace=wrap;strokeWidth=2;strokeColor=#330066;" parent="ZhV66ZL3Fcg3pCTveZNn-3" vertex="1">
          <mxGeometry x="17" y="179" width="174" height="75" as="geometry" />
        </mxCell>
        <mxCell id="ZhV66ZL3Fcg3pCTveZNn-8" value="" style="shape=component;jettyWidth=8;jettyHeight=4;" parent="ZhV66ZL3Fcg3pCTveZNn-7" vertex="1">
          <mxGeometry x="1" width="20" height="20" relative="1" as="geometry">
            <mxPoint x="-24" y="4" as="offset" />
          </mxGeometry>
        </mxCell>
        <mxCell id="ZhV66ZL3Fcg3pCTveZNn-35" value="&lt;p style=&quot;margin:0px;margin-top:6px;text-align:center;&quot;&gt;&lt;b&gt;USER&lt;/b&gt;&lt;/p&gt;&lt;hr&gt;&lt;p style=&quot;margin:0px;margin-left:8px;&quot;&gt;+ Attribute1: Type&lt;br&gt;+ Attribute2: Type&lt;/p&gt;" style="align=left;overflow=fill;html=1;dropTarget=0;whiteSpace=wrap;strokeWidth=2;strokeColor=#330066;" parent="ZhV66ZL3Fcg3pCTveZNn-3" vertex="1">
          <mxGeometry x="16" y="268" width="175" height="75" as="geometry" />
        </mxCell>
        <mxCell id="ZhV66ZL3Fcg3pCTveZNn-36" value="" style="shape=component;jettyWidth=8;jettyHeight=4;" parent="ZhV66ZL3Fcg3pCTveZNn-35" vertex="1">
          <mxGeometry x="1" width="20" height="20" relative="1" as="geometry">
            <mxPoint x="-24" y="4" as="offset" />
          </mxGeometry>
        </mxCell>
        <mxCell id="ZhV66ZL3Fcg3pCTveZNn-45" value="" style="shape=image;verticalLabelPosition=bottom;labelBackgroundColor=default;verticalAlign=top;aspect=fixed;imageAspect=0;image=https://cdn4.iconfinder.com/data/icons/logos-3/181/MySQL-512.png;" parent="ZhV66ZL3Fcg3pCTveZNn-3" vertex="1">
          <mxGeometry x="6" y="23" width="40" height="40" as="geometry" />
        </mxCell>
        <mxCell id="2rs3cVADqMqcjoQa2jg_-19" value="&lt;p style=&quot;margin:0px;margin-top:6px;text-align:center;&quot;&gt;&lt;b&gt;COURSE&lt;/b&gt;&lt;/p&gt;&lt;hr&gt;&lt;p style=&quot;margin:0px;margin-left:8px;&quot;&gt;+ Attribute1: Type&lt;br&gt;+ Attribute2: Type&lt;/p&gt;" style="align=left;overflow=fill;html=1;dropTarget=0;whiteSpace=wrap;strokeWidth=2;strokeColor=#330066;" parent="ZhV66ZL3Fcg3pCTveZNn-3" vertex="1">
          <mxGeometry x="16" y="363" width="174" height="75" as="geometry" />
        </mxCell>
        <mxCell id="2rs3cVADqMqcjoQa2jg_-20" value="" style="shape=component;jettyWidth=8;jettyHeight=4;" parent="2rs3cVADqMqcjoQa2jg_-19" vertex="1">
          <mxGeometry x="1" width="20" height="20" relative="1" as="geometry">
            <mxPoint x="-24" y="4" as="offset" />
          </mxGeometry>
        </mxCell>
        <mxCell id="2rs3cVADqMqcjoQa2jg_-21" value="&lt;p style=&quot;margin:0px;margin-top:6px;text-align:center;&quot;&gt;&lt;b&gt;REGISTRATION&lt;/b&gt;&lt;/p&gt;&lt;hr&gt;&lt;p style=&quot;margin:0px;margin-left:8px;&quot;&gt;+ Attribute1: Type&lt;br&gt;+ Attribute2: Type&lt;/p&gt;" style="align=left;overflow=fill;html=1;dropTarget=0;whiteSpace=wrap;strokeWidth=2;strokeColor=#330066;" parent="ZhV66ZL3Fcg3pCTveZNn-3" vertex="1">
          <mxGeometry x="15" y="456" width="173" height="75" as="geometry" />
        </mxCell>
        <mxCell id="2rs3cVADqMqcjoQa2jg_-22" value="" style="shape=component;jettyWidth=8;jettyHeight=4;" parent="2rs3cVADqMqcjoQa2jg_-21" vertex="1">
          <mxGeometry x="1" width="20" height="20" relative="1" as="geometry">
            <mxPoint x="-24" y="4" as="offset" />
          </mxGeometry>
        </mxCell>
        <mxCell id="2rs3cVADqMqcjoQa2jg_-23" value="&lt;p style=&quot;margin:0px;margin-top:6px;text-align:center;&quot;&gt;&lt;b&gt;NOTES&lt;/b&gt;&lt;/p&gt;&lt;hr&gt;&lt;p style=&quot;margin:0px;margin-left:8px;&quot;&gt;+ Attribute1: Type&lt;br&gt;+ Attribute2: Type&lt;/p&gt;" style="align=left;overflow=fill;html=1;dropTarget=0;whiteSpace=wrap;strokeWidth=2;strokeColor=#330066;" parent="ZhV66ZL3Fcg3pCTveZNn-3" vertex="1">
          <mxGeometry x="18" y="82" width="172" height="75" as="geometry" />
        </mxCell>
        <mxCell id="2rs3cVADqMqcjoQa2jg_-24" value="" style="shape=component;jettyWidth=8;jettyHeight=4;" parent="2rs3cVADqMqcjoQa2jg_-23" vertex="1">
          <mxGeometry x="1" width="20" height="20" relative="1" as="geometry">
            <mxPoint x="-24" y="4" as="offset" />
          </mxGeometry>
        </mxCell>
        <mxCell id="ZhV66ZL3Fcg3pCTveZNn-33" style="edgeStyle=orthogonalEdgeStyle;rounded=0;orthogonalLoop=1;jettySize=auto;html=1;entryX=0.5;entryY=0;entryDx=0;entryDy=0;strokeWidth=4;strokeColor=#97D077;flowAnimation=1;" parent="1" source="ZhV66ZL3Fcg3pCTveZNn-29" target="ZhV66ZL3Fcg3pCTveZNn-19" edge="1">
          <mxGeometry relative="1" as="geometry" />
        </mxCell>
        <mxCell id="ZhV66ZL3Fcg3pCTveZNn-34" style="edgeStyle=orthogonalEdgeStyle;rounded=0;orthogonalLoop=1;jettySize=auto;html=1;strokeWidth=4;strokeColor=#97D077;flowAnimation=1;" parent="1" source="ZhV66ZL3Fcg3pCTveZNn-29" target="ZhV66ZL3Fcg3pCTveZNn-22" edge="1">
          <mxGeometry relative="1" as="geometry" />
        </mxCell>
        <mxCell id="2rs3cVADqMqcjoQa2jg_-38" value="HTTP" style="edgeLabel;html=1;align=center;verticalAlign=middle;resizable=0;points=[];" parent="ZhV66ZL3Fcg3pCTveZNn-34" vertex="1" connectable="0">
          <mxGeometry x="-0.8009" y="2" relative="1" as="geometry">
            <mxPoint as="offset" />
          </mxGeometry>
        </mxCell>
        <mxCell id="ZhV66ZL3Fcg3pCTveZNn-29" value="microservicios" style="swimlane;whiteSpace=wrap;html=1;strokeWidth=5;strokeColor=#97D077;startSize=29;fontSize=16;" parent="1" vertex="1">
          <mxGeometry x="200" y="149" width="820" height="627" as="geometry" />
        </mxCell>
        <mxCell id="2rs3cVADqMqcjoQa2jg_-2" value="&lt;p style=&quot;margin:0px;margin-top:6px;text-align:center;&quot;&gt;&lt;b&gt;&lt;br&gt;&lt;br&gt;ms-platform&lt;/b&gt;&lt;/p&gt;&lt;hr&gt;&lt;p style=&quot;margin:0px;margin-left:8px;&quot;&gt;&lt;br&gt;&lt;/p&gt;" style="align=left;overflow=fill;html=1;dropTarget=1;whiteSpace=wrap;container=1;collapsible=0;strokeWidth=4;strokeColor=#00CC00;" parent="ZhV66ZL3Fcg3pCTveZNn-29" vertex="1">
          <mxGeometry x="354" y="55" width="145" height="127" as="geometry" />
        </mxCell>
        <mxCell id="2rs3cVADqMqcjoQa2jg_-3" value="" style="shape=component;jettyWidth=8;jettyHeight=4;" parent="2rs3cVADqMqcjoQa2jg_-2" vertex="1">
          <mxGeometry x="1" width="20" height="20" relative="1" as="geometry">
            <mxPoint x="-24" y="4" as="offset" />
          </mxGeometry>
        </mxCell>
        <mxCell id="2rs3cVADqMqcjoQa2jg_-4" value="" style="shape=image;verticalLabelPosition=bottom;labelBackgroundColor=default;verticalAlign=top;aspect=fixed;imageAspect=0;image=https://images.g2crowd.com/uploads/product/image/social_landscape/social_landscape_9d63a0ed04b871d3dacc8647b7f0927d/spring-boot.png;clipPath=inset(0% 23% 3.16% 23%);" parent="2rs3cVADqMqcjoQa2jg_-2" vertex="1">
          <mxGeometry x="7" y="10" width="32.82" height="31" as="geometry" />
        </mxCell>
        <mxCell id="2rs3cVADqMqcjoQa2jg_-5" value="&lt;p style=&quot;margin:0px;margin-top:6px;text-align:center;&quot;&gt;&lt;b&gt;&lt;br&gt;&lt;br&gt;ms-registration&lt;/b&gt;&lt;/p&gt;&lt;hr&gt;&lt;p style=&quot;margin:0px;margin-left:8px;&quot;&gt;&lt;br&gt;&lt;/p&gt;" style="align=left;overflow=fill;html=1;dropTarget=1;whiteSpace=wrap;container=1;collapsible=0;strokeWidth=4;strokeColor=#00CC00;" parent="ZhV66ZL3Fcg3pCTveZNn-29" vertex="1">
          <mxGeometry x="337.5" y="452" width="145" height="127" as="geometry" />
        </mxCell>
        <mxCell id="2rs3cVADqMqcjoQa2jg_-6" value="" style="shape=component;jettyWidth=8;jettyHeight=4;" parent="2rs3cVADqMqcjoQa2jg_-5" vertex="1">
          <mxGeometry x="1" width="20" height="20" relative="1" as="geometry">
            <mxPoint x="-24" y="4" as="offset" />
          </mxGeometry>
        </mxCell>
        <mxCell id="2rs3cVADqMqcjoQa2jg_-7" value="" style="shape=image;verticalLabelPosition=bottom;labelBackgroundColor=default;verticalAlign=top;aspect=fixed;imageAspect=0;image=https://images.g2crowd.com/uploads/product/image/social_landscape/social_landscape_9d63a0ed04b871d3dacc8647b7f0927d/spring-boot.png;clipPath=inset(0% 23% 3.16% 23%);" parent="2rs3cVADqMqcjoQa2jg_-5" vertex="1">
          <mxGeometry x="4.5" y="5" width="32.82" height="31" as="geometry" />
        </mxCell>
        <mxCell id="2rs3cVADqMqcjoQa2jg_-8" value="&lt;p style=&quot;margin:0px;margin-top:6px;text-align:center;&quot;&gt;&lt;b&gt;&lt;br&gt;&lt;br&gt;ms-note&lt;/b&gt;&lt;/p&gt;&lt;hr&gt;&lt;p style=&quot;margin:0px;margin-left:8px;&quot;&gt;&lt;br&gt;&lt;/p&gt;" style="align=left;overflow=fill;html=1;dropTarget=1;whiteSpace=wrap;container=1;collapsible=0;strokeWidth=4;strokeColor=#00CC00;" parent="ZhV66ZL3Fcg3pCTveZNn-29" vertex="1">
          <mxGeometry x="595" y="59" width="145" height="127" as="geometry" />
        </mxCell>
        <mxCell id="2rs3cVADqMqcjoQa2jg_-9" value="" style="shape=component;jettyWidth=8;jettyHeight=4;" parent="2rs3cVADqMqcjoQa2jg_-8" vertex="1">
          <mxGeometry x="1" width="20" height="20" relative="1" as="geometry">
            <mxPoint x="-24" y="4" as="offset" />
          </mxGeometry>
        </mxCell>
        <mxCell id="2rs3cVADqMqcjoQa2jg_-10" value="" style="shape=image;verticalLabelPosition=bottom;labelBackgroundColor=default;verticalAlign=top;aspect=fixed;imageAspect=0;image=https://images.g2crowd.com/uploads/product/image/social_landscape/social_landscape_9d63a0ed04b871d3dacc8647b7f0927d/spring-boot.png;clipPath=inset(0% 23% 3.16% 23%);" parent="2rs3cVADqMqcjoQa2jg_-8" vertex="1">
          <mxGeometry x="7" y="10" width="32.82" height="31" as="geometry" />
        </mxCell>
        <mxCell id="2rs3cVADqMqcjoQa2jg_-11" style="rounded=0;orthogonalLoop=1;jettySize=auto;html=1;entryX=0.5;entryY=1;entryDx=0;entryDy=0;strokeWidth=4;strokeColor=#00CC00;flowAnimation=1;exitX=1;exitY=0.5;exitDx=0;exitDy=0;edgeStyle=orthogonalEdgeStyle;curved=1;" parent="ZhV66ZL3Fcg3pCTveZNn-29" source="ZhV66ZL3Fcg3pCTveZNn-5" target="2rs3cVADqMqcjoQa2jg_-2" edge="1">
          <mxGeometry relative="1" as="geometry" />
        </mxCell>
        <mxCell id="2rs3cVADqMqcjoQa2jg_-12" style="edgeStyle=orthogonalEdgeStyle;rounded=0;orthogonalLoop=1;jettySize=auto;html=1;entryX=0.5;entryY=0;entryDx=0;entryDy=0;strokeWidth=4;strokeColor=#00CC00;flowAnimation=1;curved=1;" parent="ZhV66ZL3Fcg3pCTveZNn-29" source="ZhV66ZL3Fcg3pCTveZNn-5" target="2rs3cVADqMqcjoQa2jg_-5" edge="1">
          <mxGeometry relative="1" as="geometry" />
        </mxCell>
        <mxCell id="2rs3cVADqMqcjoQa2jg_-13" style="rounded=0;orthogonalLoop=1;jettySize=auto;html=1;entryX=0.5;entryY=1;entryDx=0;entryDy=0;strokeWidth=4;strokeColor=#00CC00;flowAnimation=1;edgeStyle=orthogonalEdgeStyle;curved=1;" parent="ZhV66ZL3Fcg3pCTveZNn-29" source="ZhV66ZL3Fcg3pCTveZNn-5" target="2rs3cVADqMqcjoQa2jg_-8" edge="1">
          <mxGeometry relative="1" as="geometry" />
        </mxCell>
        <mxCell id="2rs3cVADqMqcjoQa2jg_-36" value="HTTP" style="edgeLabel;html=1;align=center;verticalAlign=middle;resizable=0;points=[];" parent="2rs3cVADqMqcjoQa2jg_-13" vertex="1" connectable="0">
          <mxGeometry x="-0.9152" y="3" relative="1" as="geometry">
            <mxPoint as="offset" />
          </mxGeometry>
        </mxCell>
        <mxCell id="ZhV66ZL3Fcg3pCTveZNn-5" value="&lt;p style=&quot;margin:0px;margin-top:6px;text-align:center;&quot;&gt;&lt;b&gt;&lt;br&gt;&lt;br&gt;ms-gateway&lt;/b&gt;&lt;/p&gt;&lt;hr&gt;&lt;p style=&quot;margin:0px;margin-left:8px;&quot;&gt;&lt;br&gt;&lt;/p&gt;" style="align=left;overflow=fill;html=1;dropTarget=1;whiteSpace=wrap;container=1;collapsible=0;strokeWidth=4;strokeColor=#00CC00;" parent="ZhV66ZL3Fcg3pCTveZNn-29" vertex="1">
          <mxGeometry x="31" y="251" width="145" height="127" as="geometry" />
        </mxCell>
        <mxCell id="ZhV66ZL3Fcg3pCTveZNn-6" value="" style="shape=component;jettyWidth=8;jettyHeight=4;" parent="ZhV66ZL3Fcg3pCTveZNn-5" vertex="1">
          <mxGeometry x="1" width="20" height="20" relative="1" as="geometry">
            <mxPoint x="-24" y="4" as="offset" />
          </mxGeometry>
        </mxCell>
        <mxCell id="ZhV66ZL3Fcg3pCTveZNn-11" value="" style="shape=image;verticalLabelPosition=bottom;labelBackgroundColor=default;verticalAlign=top;aspect=fixed;imageAspect=0;image=https://images.g2crowd.com/uploads/product/image/social_landscape/social_landscape_9d63a0ed04b871d3dacc8647b7f0927d/spring-boot.png;clipPath=inset(0% 23% 3.16% 23%);" parent="ZhV66ZL3Fcg3pCTveZNn-5" vertex="1">
          <mxGeometry x="7" y="7" width="32.82" height="31" as="geometry" />
        </mxCell>
        <mxCell id="ZhV66ZL3Fcg3pCTveZNn-12" value="&lt;p style=&quot;margin:0px;margin-top:6px;text-align:center;&quot;&gt;&lt;b&gt;&lt;br&gt;&lt;br&gt;ms-course&lt;/b&gt;&lt;/p&gt;&lt;hr&gt;&lt;p style=&quot;margin:0px;margin-left:8px;&quot;&gt;&lt;br&gt;&lt;/p&gt;" style="align=left;overflow=fill;html=1;dropTarget=1;whiteSpace=wrap;container=1;collapsible=0;strokeWidth=4;strokeColor=#00CC00;" parent="ZhV66ZL3Fcg3pCTveZNn-29" vertex="1">
          <mxGeometry x="94" y="450" width="145" height="127" as="geometry" />
        </mxCell>
        <mxCell id="ZhV66ZL3Fcg3pCTveZNn-13" value="" style="shape=component;jettyWidth=8;jettyHeight=4;" parent="ZhV66ZL3Fcg3pCTveZNn-12" vertex="1">
          <mxGeometry x="1" width="20" height="20" relative="1" as="geometry">
            <mxPoint x="-24" y="4" as="offset" />
          </mxGeometry>
        </mxCell>
        <mxCell id="ZhV66ZL3Fcg3pCTveZNn-14" value="" style="shape=image;verticalLabelPosition=bottom;labelBackgroundColor=default;verticalAlign=top;aspect=fixed;imageAspect=0;image=https://images.g2crowd.com/uploads/product/image/social_landscape/social_landscape_9d63a0ed04b871d3dacc8647b7f0927d/spring-boot.png;clipPath=inset(0% 23% 3.16% 23%);" parent="ZhV66ZL3Fcg3pCTveZNn-12" vertex="1">
          <mxGeometry x="5" y="8" width="32.82" height="31" as="geometry" />
        </mxCell>
        <mxCell id="ZhV66ZL3Fcg3pCTveZNn-27" style="rounded=0;orthogonalLoop=1;jettySize=auto;html=1;strokeWidth=4;strokeColor=#00CC00;flowAnimation=1;entryX=0.5;entryY=0;entryDx=0;entryDy=0;edgeStyle=orthogonalEdgeStyle;curved=1;" parent="ZhV66ZL3Fcg3pCTveZNn-29" source="ZhV66ZL3Fcg3pCTveZNn-5" target="ZhV66ZL3Fcg3pCTveZNn-12" edge="1">
          <mxGeometry relative="1" as="geometry" />
        </mxCell>
        <mxCell id="2rs3cVADqMqcjoQa2jg_-37" value="HTTP" style="edgeLabel;html=1;align=center;verticalAlign=middle;resizable=0;points=[];" parent="ZhV66ZL3Fcg3pCTveZNn-27" vertex="1" connectable="0">
          <mxGeometry x="-0.2449" y="6" relative="1" as="geometry">
            <mxPoint as="offset" />
          </mxGeometry>
        </mxCell>
        <mxCell id="ZhV66ZL3Fcg3pCTveZNn-15" value="&lt;p style=&quot;margin:0px;margin-top:6px;text-align:center;&quot;&gt;&lt;b&gt;&lt;br&gt;&lt;br&gt;ms-user&lt;/b&gt;&lt;/p&gt;&lt;hr&gt;&lt;p style=&quot;margin:0px;margin-left:8px;&quot;&gt;&lt;br&gt;&lt;/p&gt;" style="align=left;overflow=fill;html=1;dropTarget=1;whiteSpace=wrap;container=1;collapsible=0;strokeWidth=4;strokeColor=#00CC00;" parent="ZhV66ZL3Fcg3pCTveZNn-29" vertex="1">
          <mxGeometry x="94" y="53" width="145" height="127" as="geometry" />
        </mxCell>
        <mxCell id="ZhV66ZL3Fcg3pCTveZNn-16" value="" style="shape=component;jettyWidth=8;jettyHeight=4;" parent="ZhV66ZL3Fcg3pCTveZNn-15" vertex="1">
          <mxGeometry x="1" width="20" height="20" relative="1" as="geometry">
            <mxPoint x="-24" y="4" as="offset" />
          </mxGeometry>
        </mxCell>
        <mxCell id="ZhV66ZL3Fcg3pCTveZNn-17" value="" style="shape=image;verticalLabelPosition=bottom;labelBackgroundColor=default;verticalAlign=top;aspect=fixed;imageAspect=0;image=https://images.g2crowd.com/uploads/product/image/social_landscape/social_landscape_9d63a0ed04b871d3dacc8647b7f0927d/spring-boot.png;clipPath=inset(0% 23% 3.16% 23%);" parent="ZhV66ZL3Fcg3pCTveZNn-15" vertex="1">
          <mxGeometry x="7" y="10" width="32.82" height="31" as="geometry" />
        </mxCell>
        <mxCell id="ZhV66ZL3Fcg3pCTveZNn-26" value="HTTP" style="rounded=0;orthogonalLoop=1;jettySize=auto;html=1;entryX=0.5;entryY=1;entryDx=0;entryDy=0;strokeWidth=4;strokeColor=#00CC00;flowAnimation=1;edgeStyle=orthogonalEdgeStyle;curved=1;" parent="ZhV66ZL3Fcg3pCTveZNn-29" source="ZhV66ZL3Fcg3pCTveZNn-5" target="ZhV66ZL3Fcg3pCTveZNn-15" edge="1">
          <mxGeometry relative="1" as="geometry" />
        </mxCell>
        <mxCell id="2rs3cVADqMqcjoQa2jg_-15" value="" style="rounded=0;orthogonalLoop=1;jettySize=auto;html=1;endArrow=halfCircle;endFill=0;endSize=6;strokeWidth=3;sketch=0;exitX=1;exitY=0.5;exitDx=0;exitDy=0;strokeColor=#006600;flowAnimation=1;" parent="ZhV66ZL3Fcg3pCTveZNn-29" source="2rs3cVADqMqcjoQa2jg_-2" edge="1">
          <mxGeometry relative="1" as="geometry">
            <mxPoint x="259" y="94.5" as="sourcePoint" />
            <mxPoint x="950" y="226" as="targetPoint" />
            <Array as="points">
              <mxPoint x="590" y="226" />
            </Array>
          </mxGeometry>
        </mxCell>
        <mxCell id="2rs3cVADqMqcjoQa2jg_-30" value="JPA" style="edgeLabel;html=1;align=center;verticalAlign=middle;resizable=0;points=[];" parent="2rs3cVADqMqcjoQa2jg_-15" vertex="1" connectable="0">
          <mxGeometry x="0.8095" y="2" relative="1" as="geometry">
            <mxPoint as="offset" />
          </mxGeometry>
        </mxCell>
        <mxCell id="2rs3cVADqMqcjoQa2jg_-16" value="" style="rounded=0;orthogonalLoop=1;jettySize=auto;html=1;endArrow=halfCircle;endFill=0;endSize=6;strokeWidth=3;sketch=0;exitX=1;exitY=0.5;exitDx=0;exitDy=0;strokeColor=#006600;flowAnimation=1;" parent="ZhV66ZL3Fcg3pCTveZNn-29" source="2rs3cVADqMqcjoQa2jg_-8" edge="1">
          <mxGeometry relative="1" as="geometry">
            <mxPoint x="613" y="118.5" as="sourcePoint" />
            <mxPoint x="950" y="121" as="targetPoint" />
            <Array as="points">
              <mxPoint x="914" y="121" />
            </Array>
          </mxGeometry>
        </mxCell>
        <mxCell id="2rs3cVADqMqcjoQa2jg_-29" value="JPA" style="edgeLabel;html=1;align=center;verticalAlign=middle;resizable=0;points=[];" parent="2rs3cVADqMqcjoQa2jg_-16" vertex="1" connectable="0">
          <mxGeometry x="0.5639" y="3" relative="1" as="geometry">
            <mxPoint as="offset" />
          </mxGeometry>
        </mxCell>
        <mxCell id="2rs3cVADqMqcjoQa2jg_-17" value="" style="rounded=0;orthogonalLoop=1;jettySize=auto;html=1;endArrow=halfCircle;endFill=0;endSize=6;strokeWidth=3;sketch=0;exitX=1;exitY=0.5;exitDx=0;exitDy=0;strokeColor=#006600;flowAnimation=1;" parent="ZhV66ZL3Fcg3pCTveZNn-29" source="2rs3cVADqMqcjoQa2jg_-5" edge="1">
          <mxGeometry relative="1" as="geometry">
            <mxPoint x="522" y="567" as="sourcePoint" />
            <mxPoint x="953" y="489" as="targetPoint" />
            <Array as="points">
              <mxPoint x="592" y="487" />
            </Array>
          </mxGeometry>
        </mxCell>
        <mxCell id="2rs3cVADqMqcjoQa2jg_-34" value="JPA" style="edgeLabel;html=1;align=center;verticalAlign=middle;resizable=0;points=[];" parent="2rs3cVADqMqcjoQa2jg_-17" vertex="1" connectable="0">
          <mxGeometry x="0.8079" y="1" relative="1" as="geometry">
            <mxPoint as="offset" />
          </mxGeometry>
        </mxCell>
        <mxCell id="ZhV66ZL3Fcg3pCTveZNn-25" style="edgeStyle=orthogonalEdgeStyle;rounded=0;orthogonalLoop=1;jettySize=auto;html=1;entryX=0;entryY=0.5;entryDx=0;entryDy=0;strokeWidth=3;strokeColor=#003366;flowAnimation=1;" parent="1" source="ZhV66ZL3Fcg3pCTveZNn-1" target="ZhV66ZL3Fcg3pCTveZNn-5" edge="1">
          <mxGeometry relative="1" as="geometry" />
        </mxCell>
        <mxCell id="2rs3cVADqMqcjoQa2jg_-35" value="HTTP" style="edgeLabel;html=1;align=center;verticalAlign=middle;resizable=0;points=[];" parent="ZhV66ZL3Fcg3pCTveZNn-25" vertex="1" connectable="0">
          <mxGeometry x="-0.459" relative="1" as="geometry">
            <mxPoint as="offset" />
          </mxGeometry>
        </mxCell>
        <mxCell id="ZhV66ZL3Fcg3pCTveZNn-39" value="" style="rounded=0;orthogonalLoop=1;jettySize=auto;html=1;endArrow=halfCircle;endFill=0;endSize=6;strokeWidth=3;sketch=0;exitX=1;exitY=0.5;exitDx=0;exitDy=0;strokeColor=#006600;flowAnimation=1;" parent="1" source="ZhV66ZL3Fcg3pCTveZNn-15" edge="1">
          <mxGeometry relative="1" as="geometry">
            <mxPoint x="848" y="484" as="sourcePoint" />
            <mxPoint x="1150" y="440" as="targetPoint" />
            <Array as="points">
              <mxPoint x="530" y="373" />
            </Array>
          </mxGeometry>
        </mxCell>
        <mxCell id="2rs3cVADqMqcjoQa2jg_-31" value="JPA" style="edgeLabel;html=1;align=center;verticalAlign=middle;resizable=0;points=[];" parent="ZhV66ZL3Fcg3pCTveZNn-39" vertex="1" connectable="0">
          <mxGeometry x="0.8801" y="3" relative="1" as="geometry">
            <mxPoint as="offset" />
          </mxGeometry>
        </mxCell>
        <mxCell id="ZhV66ZL3Fcg3pCTveZNn-40" value="" style="rounded=0;orthogonalLoop=1;jettySize=auto;html=1;endArrow=oval;endFill=0;sketch=0;sourcePerimeterSpacing=0;targetPerimeterSpacing=0;endSize=10;exitX=0;exitY=0.5;exitDx=0;exitDy=0;strokeWidth=3;strokeColor=#9933FF;flowAnimation=1;" parent="1" source="ZhV66ZL3Fcg3pCTveZNn-35" edge="1">
          <mxGeometry relative="1" as="geometry">
            <mxPoint x="808" y="484" as="sourcePoint" />
            <Array as="points">
              <mxPoint x="1240" y="440" />
            </Array>
            <mxPoint x="1150" y="440" as="targetPoint" />
          </mxGeometry>
        </mxCell>
        <mxCell id="ZhV66ZL3Fcg3pCTveZNn-41" value="" style="ellipse;whiteSpace=wrap;html=1;align=center;aspect=fixed;fillColor=none;strokeColor=none;resizable=0;perimeter=centerPerimeter;rotatable=0;allowArrows=0;points=[];outlineConnect=1;" parent="1" vertex="1">
          <mxGeometry x="855" y="425" width="10" height="10" as="geometry" />
        </mxCell>
        <mxCell id="ZhV66ZL3Fcg3pCTveZNn-42" value="" style="rounded=0;orthogonalLoop=1;jettySize=auto;html=1;endArrow=halfCircle;endFill=0;endSize=6;strokeWidth=3;sketch=0;exitX=1;exitY=0.5;exitDx=0;exitDy=0;strokeColor=#006600;flowAnimation=1;" parent="1" source="ZhV66ZL3Fcg3pCTveZNn-12" edge="1">
          <mxGeometry relative="1" as="geometry">
            <mxPoint x="685" y="657" as="sourcePoint" />
            <mxPoint x="1150" y="490" as="targetPoint" />
            <Array as="points">
              <mxPoint x="526" y="540" />
            </Array>
          </mxGeometry>
        </mxCell>
        <mxCell id="2rs3cVADqMqcjoQa2jg_-33" value="JPA" style="edgeLabel;html=1;align=center;verticalAlign=middle;resizable=0;points=[];" parent="ZhV66ZL3Fcg3pCTveZNn-42" vertex="1" connectable="0">
          <mxGeometry x="0.8824" y="3" relative="1" as="geometry">
            <mxPoint as="offset" />
          </mxGeometry>
        </mxCell>
        <mxCell id="ZhV66ZL3Fcg3pCTveZNn-43" value="" style="rounded=0;orthogonalLoop=1;jettySize=auto;html=1;endArrow=oval;endFill=0;sketch=0;sourcePerimeterSpacing=0;targetPerimeterSpacing=0;endSize=10;exitX=0;exitY=0.5;exitDx=0;exitDy=0;strokeWidth=3;strokeColor=#9933FF;flowAnimation=1;" parent="1" source="ZhV66ZL3Fcg3pCTveZNn-7" edge="1">
          <mxGeometry relative="1" as="geometry">
            <mxPoint x="1000" y="730" as="sourcePoint" />
            <mxPoint x="1149" y="375" as="targetPoint" />
            <Array as="points">
              <mxPoint x="1212" y="375" />
            </Array>
          </mxGeometry>
        </mxCell>
        <mxCell id="2rs3cVADqMqcjoQa2jg_-26" value="" style="rounded=0;orthogonalLoop=1;jettySize=auto;html=1;endArrow=oval;endFill=0;sketch=0;sourcePerimeterSpacing=0;targetPerimeterSpacing=0;endSize=10;exitX=0;exitY=0.5;exitDx=0;exitDy=0;strokeWidth=3;strokeColor=#9933FF;flowAnimation=1;" parent="1" source="2rs3cVADqMqcjoQa2jg_-19" edge="1">
          <mxGeometry relative="1" as="geometry">
            <mxPoint x="1329" y="130" as="sourcePoint" />
            <Array as="points">
              <mxPoint x="1237" y="492" />
            </Array>
            <mxPoint x="1149" y="490" as="targetPoint" />
          </mxGeometry>
        </mxCell>
        <mxCell id="2rs3cVADqMqcjoQa2jg_-27" value="" style="rounded=0;orthogonalLoop=1;jettySize=auto;html=1;endArrow=oval;endFill=0;sketch=0;sourcePerimeterSpacing=0;targetPerimeterSpacing=0;endSize=10;exitX=0;exitY=0.5;exitDx=0;exitDy=0;strokeWidth=3;strokeColor=#9933FF;flowAnimation=1;" parent="1" source="2rs3cVADqMqcjoQa2jg_-23" edge="1">
          <mxGeometry relative="1" as="geometry">
            <mxPoint x="1319" y="110" as="sourcePoint" />
            <Array as="points" />
            <mxPoint x="1149" y="270" as="targetPoint" />
          </mxGeometry>
        </mxCell>
        <mxCell id="2rs3cVADqMqcjoQa2jg_-28" value="" style="rounded=0;orthogonalLoop=1;jettySize=auto;html=1;endArrow=oval;endFill=0;sketch=0;sourcePerimeterSpacing=0;targetPerimeterSpacing=0;endSize=10;exitX=0;exitY=0.5;exitDx=0;exitDy=0;strokeWidth=3;strokeColor=#9933FF;flowAnimation=1;" parent="1" source="2rs3cVADqMqcjoQa2jg_-21" edge="1">
          <mxGeometry relative="1" as="geometry">
            <mxPoint x="1299" y="90" as="sourcePoint" />
            <Array as="points" />
            <mxPoint x="1156" y="637" as="targetPoint" />
          </mxGeometry>
        </mxCell>
      </root>
    </mxGraphModel>
  </diagram>
</mxfile>
